HIERARCHY
ROOT Hips
{
 OFFSET 0.000000 0.000000 0.000000
 CHANNELS 6 Xposition Yposition Zposition Yrotation Xrotation Zrotation
 JOINT Chest
 {
  OFFSET 0.000000 9.585900 0.002600
  CHANNELS 3 Yrotation Xrotation Zrotation
  JOINT Chest2
  {
   OFFSET 0.000000 9.601200 -0.005300
   CHANNELS 3 Yrotation Xrotation Zrotation
   JOINT Chest3
   {
    OFFSET 0.000000 9.561800 0.000000
    CHANNELS 3 Yrotation Xrotation Zrotation
    JOINT Chest4
    {
     OFFSET 0.000000 9.552100 0.000000
     CHANNELS 3 Yrotation Xrotation Zrotation
     JOINT Neck
     {
      OFFSET 0.000000 14.453000 0.000000
      CHANNELS 3 Yrotation Xrotation Zrotation
      JOINT Head
      {
       OFFSET 0.000000 8.936500 -0.011300
       CHANNELS 3 Yrotation Xrotation Zrotation
       End Site
       {
        OFFSET 0.000000 17.073600 -0.006000
       }
      }
     }
     JOINT RightCollar
     {
      OFFSET -2.921100 9.558500 0.000000
      CHANNELS 3 Yrotation Xrotation Zrotation
      JOINT RightShoulder
      {
       OFFSET -13.519700 0.000000 0.000000
       CHANNELS 3 Yrotation Xrotation Zrotation
       JOINT RightElbow
       {
        OFFSET 0.000000 -29.696600 0.000000
        CHANNELS 3 Yrotation Xrotation Zrotation
        JOINT RightWrist
        {
         OFFSET 0.000000 -24.004700 0.000000
         CHANNELS 3 Yrotation Xrotation Zrotation
         End Site
         {
          OFFSET 0.000000 -17.728500 0.000000
         }
        }
       }
      }
     }
     JOINT LeftCollar
     {
      OFFSET 2.921100 9.558500 0.000000
      CHANNELS 3 Yrotation Xrotation Zrotation
      JOINT LeftShoulder
      {
       OFFSET 13.519700 0.000000 0.000000
       CHANNELS 3 Yrotation Xrotation Zrotation
       JOINT LeftElbow
       {
        OFFSET 0.000000 -29.696600 0.000000
        CHANNELS 3 Yrotation Xrotation Zrotation
        JOINT LeftWrist
        {
         OFFSET 0.000000 -24.004700 0.000000
         CHANNELS 3 Yrotation Xrotation Zrotation
         End Site
         {
          OFFSET 0.000000 -17.728500 0.000000
         }
        }
       }
      }
     }
    }
   }
  }
 }
 JOINT RightHip
 {
  OFFSET -7.771700 -0.012900 -0.001300
  CHANNELS 3 Yrotation Xrotation Zrotation
  JOINT RightKnee
  {
   OFFSET 0.000000 -40.869800 0.001200
   CHANNELS 3 Yrotation Xrotation Zrotation
   JOINT RightAnkle
   {
    OFFSET 0.000000 -39.717900 0.002100
    CHANNELS 3 Yrotation Xrotation Zrotation
    JOINT RightToe
    {
     OFFSET 0.000000 -4.965400 11.033500
     CHANNELS 3 Yrotation Xrotation Zrotation
     End Site
     {
      OFFSET 0.000000 -1.423100 5.872300
     }
    }
   }
  }
 }
 JOINT LeftHip
 {
  OFFSET 7.771700 -0.012900 -0.001300
  CHANNELS 3 Yrotation Xrotation Zrotation
  JOINT LeftKnee
  {
   OFFSET 0.000000 -40.869800 0.001200
   CHANNELS 3 Yrotation Xrotation Zrotation
   JOINT LeftAnkle
   {
    OFFSET 0.000000 -39.717900 0.002100
    CHANNELS 3 Yrotation Xrotation Zrotation
    JOINT LeftToe
    {
     OFFSET 0.000000 -4.965400 11.033500
     CHANNELS 3 Yrotation Xrotation Zrotation
     End Site
     {
      OFFSET 0.000000 -1.423100 5.872300
     }
    }
   }
  }
 }
}
MOTION
Frames: 16
Frame Time: 0.008333
-116.471614 46.704607 -36.448712 174.319177 -31.732632 -4.432552 2.035775 17.623823 2.733923 0.150832 1.927847 0.258248 0.165111 3.239046 0.395527 0.968753 15.528861 1.964097 0.641532 18.382347 -2.301035 1.919736 -1.601988 -4.431826 -1.476475 0.783875 -2.762075 5.826509 -6.884494 -15.050330 -46.327269 -54.057911 97.609478 -2.193015 1.495289 -12.358891 1.552583 -0.254239 4.799768 -6.962510 -1.534996 11.426896 76.902605 -72.833960 -114.606637 -2.508075 9.263425 3.298937 -3.521410 -54.783944 2.569146 -172.513087 78.832954 -162.684496 -7.062671 -20.741084 -4.619368 -0.335385 -0.610869 0.189804 -3.026673 -57.471806 15.299963 -109.353274 81.958521 -113.955477 8.445835 -6.247667 5.919414 0.773722 0.280802 0.348218
-116.537758 46.694573 -36.447668 174.171073 -31.639757 -4.353620 2.064414 17.567235 2.666675 0.119223 1.939436 0.237354 0.220517 3.211968 0.412531 0.993484 15.522687 1.932453 0.646417 18.335568 -2.377410 1.955051 -1.685775 -4.575091 -1.425839 0.746574 -2.760955 5.849986 -6.885094 -15.020670 -46.297000 -54.057066 97.572659 -2.191465 1.505465 -12.398396 1.573161 -0.243369 4.795521 -6.946603 -1.513702 11.429094 76.797362 -72.759819 -114.482431 -2.498588 9.257734 3.294042 -3.613185 -54.841356 2.243951 -168.905093 78.590121 -159.080067 -7.067768 -20.738029 -4.619285 -0.465730 -0.655970 0.203046 -2.941426 -57.561918 15.311115 -109.425366 81.952429 -114.048887 8.360124 -6.261712 5.901016 0.866088 0.284493 0.385655
-116.605223 46.686973 -36.449175 174.019598 -31.543776 -4.266013 2.131655 17.491845 2.617396 0.091380 1.953816 0.217286 0.239755 3.195042 0.413749 1.011971 15.521653 1.898541 0.654809 18.284360 -2.453439 1.997062 -1.777445 -4.719085 -1.381439 0.710823 -2.759291 5.947758 -6.937004 -15.054510 -46.314085 -53.971476 97.526409 -2.168549 1.567624 -12.467188 1.589970 -0.230333 4.788954 -6.917946 -1.499794 11.436764 76.752958 -72.696764 -114.420325 -2.559017 9.269009 3.280241 -3.708521 -54.887656 1.903832 -165.511988 78.306895 -155.691811 -7.042918 -20.740436 -4.612407 -0.669409 -0.702629 0.178024 -2.841621 -57.653888 15.300723 -109.509475 81.954155 -114.154063 8.249189 -6.278230 5.881858 0.997567 0.289903 0.422855
-116.672365 46.685898 -36.460442 173.914401 -31.491435 -4.193830 2.150548 17.475273 2.549408 0.093961 1.951764 0.212605 0.197452 3.216168 0.377148 1.093707 15.483022 1.909331 0.648888 18.238012 -2.545482 2.042800 -1.876384 -4.863054 -1.349327 0.687398 -2.743114 6.014753 -6.980239 -15.092441 -46.195827 -53.951560 97.382160 -2.191348 1.543598 -12.513613 1.586716 -0.207833 4.765576 -6.876975 -1.510701 11.478240 76.741110 -72.618137 -114.391976 -2.538322 9.284009 3.256289 -3.836390 -54.878647 1.549810 -162.436016 78.000689 -152.623839 -7.084538 -20.745717 -4.606816 -0.845847 -0.748923 0.155902 -2.762043 -57.700009 15.263884 -109.680878 81.946982 -114.330316 8.172653 -6.288638 5.845450 1.106344 0.274676 0.456105
-116.726087 46.689041 -36.475225 173.752917 -31.458535 -4.155812 2.229253 17.484906 2.537315 0.110953 1.940816 0.215036 0.188221 3.221994 0.359198 1.126235 15.471959 1.882362 0.660913 18.178953 -2.619864 2.091315 -1.982506 -5.005532 -1.325139 0.646741 -2.748791 6.074706 -7.018417 -15.079382 -46.097053 -53.919741 97.266569 -2.211324 1.489471 -12.521797 1.586466 -0.195944 4.760770 -6.824077 -1.504634 11.473944 76.836081 -72.610896 -114.470577 -2.530678 9.308049 3.226645 -4.025536 -54.842275 1.328917 -159.720640 77.693751 -149.923140 -7.076832 -20.710343 -4.605038 -1.080661 -0.819009 0.094602 -2.726263 -57.730917 15.331335 -110.073487 81.935021 -114.676503 8.009435 -6.326319 5.726864 1.302369 0.274662 0.543153
-116.781542 46.691468 -36.489931 173.689216 -31.396151 -4.133416 2.233019 17.465707 2.501590 0.113034 1.939861 0.209892 0.191635 3.220503 0.350841 1.127686 15.479830 1.824756 0.690951 18.107423 -2.676526 2.143040 -2.095199 -5.146459 -1.293271 0.593147 -2.737559 6.120472 -7.050251 -15.051699 -46.012766 -53.890262 97.171902 -2.226261 1.484307 -12.565153 1.594181 -0.197732 4.773860 -6.765569 -1.509937 11.465475 76.952828 -72.622894 -114.571558 -2.554671 9.345354 3.199527 -4.292492 -54.829921 1.094675 -157.373853 77.399232 -147.605140 -7.185559 -20.672936 -4.619255 -1.223049 -0.880919 0.060548 -2.705446 -57.791722 15.338938 -110.334519 81.941681 -114.914096 7.894319 -6.327149 5.673607 1.429896 0.254391 0.583539
-116.833391 46.694802 -36.506644 173.637317 -31.332104 -4.101138 2.227506 17.446042 2.453517 0.124551 1.928840 0.211854 0.184094 3.229589 0.335041 1.136869 15.479584 1.783365 0.705869 18.043077 -2.748989 2.197033 -2.210769 -5.286785 -1.266698 0.545317 -2.730641 6.138339 -7.060399 -15.004560 -45.919213 -53.893447 97.076766 -2.242912 1.489773 -12.617032 1.588363 -0.192486 4.770658 -6.704745 -1.532088 11.468978 77.051310 -72.629278 -114.653967 -2.569482 9.378205 3.157331 -4.593386 -54.820794 0.888109 -155.371933 77.126398 -145.644330 -7.360577 -20.622134 -4.646367 -1.322804 -0.941861 0.029861 -2.681217 -57.851476 15.309386 -110.634084 81.965045 -115.189464 7.812552 -6.332505 5.635131 1.536179 0.233255 0.624174
-116.882238 46.698251 -36.524708 173.582973 -31.266006 -4.038645 2.236925 17.401098 2.395988 0.104007 1.949503 0.195104 0.186855 3.228327 0.325759 1.145939 15.479205 1.740081 0.722283 17.979111 -2.821372 2.253788 -2.325413 -5.427550 -1.236551 0.500207 -2.727687 6.178235 -7.098224 -15.008022 -45.870167 -53.837029 97.005575 -2.259596 1.488316 -12.672480 1.604889 -0.210007 4.801686 -6.674582 -1.545251 11.470010 77.096720 -72.634234 -114.690405 -2.549279 9.372405 3.110887 -4.885899 -54.819776 0.680165 -153.735445 76.888696 -144.053817 -7.594869 -20.567744 -4.694072 -1.357978 -0.990028 0.008513 -2.622329 -57.906884 15.196061 -111.002705 82.024249 -115.530831 7.823106 -6.355095 5.607973 1.537872 0.221388 0.613698
-116.916231 46.701928 -36.541580 173.518455 -31.198059 -4.006896 2.266653 17.351233 2.376891 0.071825 1.981784 0.172956 0.199925 3.216474 0.323272 1.155043 15.478100 1.695925 0.740623 17.916258 -2.893437 2.313960 -2.437762 -5.568489 -1.201146 0.457371 -2.728569 6.210558 -7.129239 -15.014294 -45.844602 -53.787116 96.957715 -2.277833 1.489827 -12.747892 1.620985 -0.226743 4.830371 -6.653085 -1.564989 11.408340 77.081632 -72.701144 -114.654651 -2.530021 9.362632 3.060595 -5.242250 -54.822347 0.577129 -152.452097 76.697765 -142.815931 -7.838592 -20.483434 -4.756421 -1.354632 -1.046645 -0.020953 -2.594067 -57.971215 15.168689 -111.342424 82.051258 -115.833260 7.811469 -6.376269 5.557266 1.563647 0.209622 0.621404
-116.942035 46.703809 -36.555500 173.462327 -31.113753 -3.972846 2.258442 17.309738 2.332697 0.078617 1.983289 0.169459 0.202599 3.214788 0.313845 1.163580 15.476621 1.651805 0.759878 17.854871 -2.963899 2.375330 -2.547349 -5.706845 -1.165917 0.412212 -2.732712 6.241678 -7.166052 -15.071855 -45.873527 -53.701875 96.970540 -2.294629 1.493298 -12.837591 1.587358 -0.191565 4.770524 -6.598178 -1.635569 11.431317 77.144047 -72.672323 -114.658953 -2.581209 9.412839 2.985602 -5.613832 -54.848274 0.503255 -151.463222 76.550198 -141.871381 -8.104652 -20.383394 -4.820891 -1.311047 -1.100634 -0.056809 -2.558871 -58.052840 15.130157 -111.640216 82.079511 -116.098289 7.814265 -6.400468 5.565800 1.547461 0.203798 0.596264
-116.963406 46.701869 -36.563674 173.404218 -30.996090 -3.909925 2.206916 17.288327 2.234299 0.121539 1.935116 0.181891 0.205321 3.213117 0.304437 1.172683 15.475038 1.607634 0.779009 17.796307 -3.032594 2.436003 -2.651751 -5.841835 -1.132912 0.365775 -2.722685 6.256935 -7.171684 -15.079144 -45.873146 -53.694611 96.949665 -2.304835 1.495844 -12.937176 1.573493 -0.181871 4.743796 -6.559945 -1.683896 11.478883 77.212763 -72.605412 -114.697389 -2.606773 9.432489 2.926318 -5.953679 -54.921145 0.420103 -150.716716 76.441091 -141.163317 -8.405110 -20.284578 -4.878182 -1.238781 -1.136181 -0.097781 -2.479916 -58.168811 15.046342 -111.818641 82.109236 -116.262582 7.864521 -6.415425 5.613699 1.487035 0.196475 0.551258
-116.969172 46.701768 -36.572439 173.287098 -30.908727 -3.853582 2.258703 17.242381 2.209335 0.123411 1.933872 0.176258 0.228124 3.190491 0.306772 1.160108 15.493888 1.553092 0.797660 17.742164 -3.100878 2.495593 -2.747937 -5.975889 -1.095193 0.315423 -2.735911 6.255086 -7.169407 -15.036103 -45.849775 -53.721213 96.903722 -2.310574 1.496498 -13.045176 1.588462 -0.203261 4.764949 -6.558145 -1.709453 11.468838 77.255727 -72.554325 -114.713631 -2.613908 9.438282 2.870974 -6.277974 -54.973473 0.422002 -150.180281 76.368185 -140.657110 -8.696456 -20.156637 -4.924662 -1.165981 -1.182174 -0.152185 -2.409594 -58.254178 15.025970 -112.165683 82.139405 -116.564821 7.893117 -6.465402 5.665911 1.447565 0.207522 0.474261
-116.967601 46.701953 -36.580747 173.155695 -30.836378 -3.784014 2.320539 17.207937 2.180338 0.125544 1.932577 0.170735 0.251429 3.170182 0.308313 1.150171 15.509582 1.501087 0.815675 17.692668 -3.168222 2.553608 -2.835412 -6.107987 -1.053431 0.264026 -2.772870 6.248788 -7.160973 -15.019498 -45.883474 -53.720090 96.916655 -2.315362 1.496413 -13.156580 1.601202 -0.222036 4.782536 -6.624588 -1.771365 11.330965 77.056002 -72.666636 -114.420128 -2.581837 9.411424 2.811314 -6.568277 -55.020399 0.435548 -149.809699 76.322656 -140.317163 -8.975839 -20.017550 -4.962840 -1.074358 -1.226429 -0.205645 -2.325847 -58.324798 15.009894 -112.495304 82.156335 -116.854741 7.954658 -6.513598 5.648524 1.415009 0.208998 0.466799
-116.959508 46.702172 -36.587889 173.010303 -30.774781 -3.705130 2.391644 17.183482 2.146949 0.128294 1.931267 0.165244 0.256939 3.167881 0.302413 1.166185 15.506644 1.456598 0.833717 17.647182 -3.232565 2.610642 -2.915470 -6.234345 -1.016154 0.218653 -2.773740 6.243526 -7.148731 -15.036793 -45.919201 -53.722883 96.931508 -2.321566 1.495025 -13.263484 1.570607 -0.211616 4.703301 -6.637270 -1.839418 11.345555 76.908618 -72.731144 -114.194966 -2.556673 9.386941 2.745444 -6.834339 -55.063416 0.469119 -149.530806 76.294164 -140.071657 -9.236846 -19.877356 -4.989679 -0.987885 -1.263545 -0.259258 -2.235071 -58.383061 15.002315 -112.784846 82.160258 -117.106920 8.024987 -6.565255 5.626893 1.358559 0.203740 0.503781
-116.946704 46.703399 -36.595621 172.885202 -30.732021 -3.632148 2.467946 17.157439 2.121438 0.103420 1.953455 0.152943 0.268522 3.161167 0.294444 1.183601 15.507189 1.414168 0.852463 17.605686 -3.293636 2.667619 -2.988165 -6.354736 -0.978439 0.166918 -2.796919 6.233815 -7.132171 -15.011777 -45.953301 -53.722514 96.946331 -2.321916 1.501379 -13.369540 1.573542 -0.234616 4.700636 -6.666904 -1.885361 11.310220 76.830794 -72.728509 -114.057343 -2.578383 9.395009 2.675550 -7.086726 -55.088754 0.501562 -149.310652 76.278061 -139.880442 -9.484309 -19.730244 -5.009278 -0.907767 -1.304015 -0.305761 -2.159720 -58.418323 14.996382 -113.029624 82.153467 -117.317253 8.078994 -6.626183 5.632850 1.311651 0.216772 0.473821
-116.924847 46.707318 -36.605556 172.660903 -30.728855 -3.538975 2.593062 17.203106 2.104194 0.120760 1.939805 0.150820 0.240954 3.191435 0.265129 1.250383 15.468943 1.391418 0.871696 17.569396 -3.353006 2.724631 -3.051080 -6.472191 -0.941057 0.111078 -2.842018 6.218702 -7.118002 -14.935832 -45.978112 -53.715332 96.964290 -2.309299 1.523157 -13.480879 1.560771 -0.251032 4.657485 -6.681287 -1.937605 11.318427 76.767563 -72.730080 -113.940387 -2.604990 9.410937 2.609600 -7.253209 -55.080130 0.571271 -149.131086 76.271472 -139.717544 -9.659743 -19.583937 -5.033998 -0.865122 -1.332336 -0.354236 -2.051746 -58.413970 15.043769 -113.359037 82.109966 -117.584974 8.130893 -6.714019 5.628924 1.321193 0.234301 0.423590
